# File created by Blade
# Date/Time:  Wed Apr 08 17:04:14 2015
#---------------------------------------------------------
:version 1.10
:name HOM
:units
  mass 1.0
  length 1.000000
  angle deg
:documentation
     Acclaim Skeleton File
:root
   axis xyz
   order TX TY TZ RX RY RZ
   position 0.000000 0.000000 0.000000
   orientation 0 0 0
:bonedata
   begin
      id 1
      name Spine_dum
      direction 0.000000 1.000000 0.000000
      length 5.893853
      axis 0.0 0.0 0.0 xyz
   end
   begin
      id 2
      name LeftUpLeg_dum
      direction 1.000000 0.000000 0.000000
      length 3.697939
      axis 0.0 0.0 0.0 xyz
   end
   begin
      id 3
      name RightUpLeg_dum
      direction -1.000000 0.000000 0.000000
      length 3.697939
      axis 0.0 0.0 0.0 xyz
   end
   begin
      id 4
      name Spine
      direction 0.000000 1.000000 0.000000
      length 0.000000
      axis 0.0 0.0 0.0 xyz
      dof rx ry rz
   end
   begin
      id 5
      name Spine_dum1
      direction 0.000000 1.000000 0.000000
      length 16.447146
      axis 0.0 0.0 0.0 xyz
   end
   begin
      id 6
      name Spine_dum2
      direction 0.000000 1.000000 0.000000
      length 10.900383
      axis 0.0 0.0 0.0 xyz
   end
   begin
      id 7
      name Spine_dum3
      direction 0.000000 1.000000 0.000000
      length 10.900383
      axis 0.0 0.0 0.0 xyz
   end
   begin
      id 8
      name Head
      direction 0.000000 1.000000 0.000000
      length 4.527550
      axis 0.0 0.0 0.0 xyz
      dof rx ry rz
   end
   begin
      id 9
      name LeftShoulder
      direction 1.000000 0.000000 0.000000
      length 8.219464
      axis 0.0 0.0 -90.0 xyz
      dof rx ry rz
   end
   begin
      id 10
      name LeftArm
      direction 1.000000 0.000000 0.000000
      length 11.094937
      axis 0.0 0.0 -90.0 xyz
      dof rx ry rz
   end
   begin
      id 11
      name LeftForeArm
      direction 1.000000 0.000000 0.000000
      length 9.103875
      axis 0.0 0.0 -90.0 xyz
      dof ry rz rx
   end
   begin
      id 12
      name LeftHand
      direction 0.000000 0.000000 0.000000
      length 0.000000
      axis 0.0 0.0 -90.0 xyz
      dof rx ry rz
   end
   begin
      id 13
      name LeftHand_dum1
      direction 0.000000 0.000000 0.000000
      length 0.000000
      axis 0.0 0.0 -90.0 xyz
   end
   begin
      id 14
      name LeftHand_dum2
      direction 1.000000 0.000000 0.000000
      length 3.937000
      axis 0.0 0.0 -90.0 xyz
   end
   begin
      id 15
      name LeftHandThumb1
      direction 0.000000 0.000000 1.000000
      length 3.937000
      axis 0.0 0.0 -90.0 xyz
      dof rx rz ry
   end
   begin
      id 16
      name RightShoulder
      direction -1.000000 0.000000 0.000000
      length 8.219464
      axis 0.0 0.0 90.0 xyz
      dof rx ry rz
   end
   begin
      id 17
      name RightArm
      direction -1.000000 0.000000 0.000000
      length 11.094937
      axis 0.0 0.0 90.0 xyz
      dof rx ry rz
   end
   begin
      id 18
      name RightForeArm
      direction -1.000000 0.000000 0.000000
      length 9.103875
      axis 0.0 0.0 90.0 xyz
      dof ry rz rx
   end
   begin
      id 19
      name RightHand
      direction 0.000000 0.000000 0.000000
      length 0.000000
      axis 0.0 0.0 90.0 xyz
      dof rx ry rz
   end
   begin
      id 20
      name RightHand_dum1
      direction 0.000000 0.000000 0.000000
      length 0.000000
      axis 0.0 0.0 90.0 xyz
   end
   begin
      id 21
      name RightHand_dum2
      direction -1.000000 0.000000 0.000000
      length 3.937000
      axis 0.0 0.0 90.0 xyz
   end
   begin
      id 22
      name RightHandThumb1
      direction 0.000000 0.000000 1.000000
      length 3.937000
      axis 0.0 0.0 90.0 xyz
      dof rx rz ry
   end
   begin
      id 23
      name LeftUpLeg
      direction 0.000000 -1.000000 0.000000
      length 16.181467
      axis 0.0 0.0 0.0 xyz
      dof rx ry rz
   end
   begin
      id 24
      name LeftLeg
      direction 0.000000 -1.000000 0.000000
      length 16.501392
      axis 0.0 0.0 0.0 xyz
      dof rx ry rz
   end
   begin
      id 25
      name LeftFoot
      direction 0.000000 -0.258819 0.965926
      length 6.408245
      axis 15.0 0.0 0.0 xyz
      dof rx ry rz
   end
   begin
      id 26
      name LeftToeBase
      direction 0.000000 0.000000 1.000000
      length 2.952750
      axis 0.0 0.0 0.0 xyz
      dof rx ry rz
   end
   begin
      id 27
      name RightUpLeg
      direction 0.000000 -1.000000 0.000000
      length 16.181467
      axis 0.0 0.0 0.0 xyz
      dof rx ry rz
   end
   begin
      id 28
      name RightLeg
      direction 0.000000 -1.000000 0.000000
      length 16.501392
      axis 0.0 0.0 0.0 xyz
      dof rx ry rz
   end
   begin
      id 29
      name RightFoot
      direction 0.000000 -0.258819 0.965926
      length 6.408245
      axis 15.0 0.0 0.0 xyz
      dof rx ry rz
   end
   begin
      id 30
      name RightToeBase
      direction 0.000000 0.000000 1.000000
      length 2.952750
      axis 0.0 0.0 0.0 xyz
      dof rx ry rz
   end
:hierarchy
   begin
      root Spine_dum LeftUpLeg_dum RightUpLeg_dum
      Spine_dum Spine
      LeftUpLeg_dum LeftUpLeg
      RightUpLeg_dum RightUpLeg
      Spine Spine_dum1 Spine_dum2 Spine_dum3
      Spine_dum1 Head
      Spine_dum2 LeftShoulder
      Spine_dum3 RightShoulder
      LeftShoulder LeftArm
      LeftArm LeftForeArm
      LeftForeArm LeftHand
      LeftHand LeftHand_dum1 LeftHand_dum2
      LeftHand_dum1 LeftHandThumb1
      RightShoulder RightArm
      RightArm RightForeArm
      RightForeArm RightHand
      RightHand RightHand_dum1 RightHand_dum2
      RightHand_dum1 RightHandThumb1
      LeftUpLeg LeftLeg
      LeftLeg LeftFoot
      LeftFoot LeftToeBase
      RightUpLeg RightLeg
      RightLeg RightFoot
      RightFoot RightToeBase
   end

# File created by Blade
# Date/Time:  Wed Apr 08 17:04:22 2015
# Frame Rate: 120.000 fps
#------------------------------------------------------
:FULLY-SPECIFIED
:DEGREES
626
root 3.607573 35.958225 3.885763 -150.072135 -76.649384 176.924622
Spine -26.974560 -16.678762 -2.934343
Head 53.398481 -17.970450 -16.113898
LeftShoulder 15.250226 -5.875278 31.980085
LeftArm 104.420000 41.270347 -41.492856
LeftForeArm 10.774332 -0.000000 94.469552
LeftHand -16.925775 -0.000000 -6.229357
LeftHandThumb1 -26.253704 0.000000 33.147579
RightShoulder -5.349241 -63.721174 -24.110223
RightArm 38.608928 -6.814114 36.082773
RightForeArm -3.329225 -0.000000 13.247029
RightHand 11.382045 -0.000000 -19.869111
RightHandThumb1 -24.326973 -0.000000 -32.862282
LeftUpLeg -29.111097 13.439865 -4.054321
LeftLeg 18.011727 -0.000000 -0.000000
LeftFoot -18.015499 11.947762 -15.788618
LeftToeBase 9.067167 -0.000000 -0.000000
RightUpLeg -33.414708 -2.408441 -10.272706
RightLeg 15.955420 -0.000000 -0.000000
RightFoot -9.941532 3.840933 19.578720
RightToeBase 13.207372 -0.000000 -0.000000
627
root 3.607128 35.958892 3.888894 -150.082704 -76.626147 176.931176
Spine -26.955985 -16.706855 -2.937625
Head 53.378412 -17.903923 -16.058899
LeftShoulder 15.209822 -5.874954 32.048885
LeftArm 104.491367 41.369615 -41.381458
LeftForeArm 10.548655 -0.000000 94.425070
LeftHand -16.698564 -0.000000 -6.090549
LeftHandThumb1 -26.253704 0.000000 33.147579
RightShoulder -5.264746 -63.771559 -24.117708
RightArm 38.627922 -8.125883 35.197611
RightForeArm -4.205984 0.000000 13.012618
RightHand 10.945505 -0.000000 -18.239685
RightHandThumb1 -24.326973 -0.000000 -32.862282
LeftUpLeg -29.099303 13.466409 -4.077471
LeftLeg 17.992821 -0.000000 -0.000000
LeftFoot -18.032096 11.966241 -15.796811
LeftToeBase 9.106759 -0.000000 -0.000000
RightUpLeg -33.419855 -2.444274 -10.263457
RightLeg 15.957053 -0.000000 -0.000000
RightFoot -9.903022 3.894082 19.560958
RightToeBase 13.168417 -0.000000 -0.000000
628
root 3.608688 35.959268 3.891389 -150.087173 -76.622885 176.932609
Spine -26.932845 -16.699846 -2.949931
Head 53.381948 -17.881692 -16.019225
LeftShoulder 15.261812 -5.880610 32.049162
LeftArm 104.591604 41.363377 -41.252250
LeftForeArm 10.306530 -0.000000 94.353764
LeftHand -16.666171 -0.000000 -6.033980
LeftHandThumb1 -26.253704 0.000000 33.147579
RightShoulder -5.251267 -63.852996 -24.072511
RightArm 38.666330 -9.464147 34.295297
RightForeArm -5.535725 -0.000000 12.809266
RightHand 10.578738 0.000000 -16.357493
RightHandThumb1 -24.326973 -0.000000 -32.862282
LeftUpLeg -29.095647 13.467583 -4.080717
LeftLeg 17.987471 -0.000000 -0.000000
LeftFoot -18.031209 11.964886 -15.795025
LeftToeBase 9.110949 -0.000000 -0.000000
RightUpLeg -33.419544 -2.473924 -10.253609
RightLeg 15.952228 -0.000000 -0.000000
RightFoot -9.885009 3.926817 19.546690
RightToeBase 13.188226 -0.000000 -0.000000
629
root 3.604721 35.959552 3.890687 -150.086003 -76.634206 176.930813
Spine -26.946922 -16.774076 -2.902172
Head 53.379935 -17.771366 -16.022825
LeftShoulder 15.256588 -5.828143 32.017376
LeftArm 104.697949 41.383759 -41.122873
LeftForeArm 10.129619 -0.000000 94.293558
LeftHand -16.705530 -0.000000 -6.022823
LeftHandThumb1 -26.253704 0.000000 33.147579
RightShoulder -5.177008 -64.004160 -24.086053
RightArm 38.818808 -10.727181 33.297249
RightForeArm -6.604589 -0.000000 12.691288
RightHand 10.114731 -0.000000 -14.100758
RightHandThumb1 -24.326973 -0.000000 -32.862282
LeftUpLeg -29.072026 13.438671 -4.060359
LeftLeg 17.961716 -0.000000 -0.000000
LeftFoot -18.021640 11.969754 -15.769397
LeftToeBase 9.111389 -0.000000 -0.000000
RightUpLeg -33.404007 -2.525662 -10.227124
RightLeg 15.940711 -0.000000 -0.000000
RightFoot -9.877222 3.949620 19.515296
RightToeBase 13.164558 -0.000000 -0.000000
